<svg width="800" height="800" viewBox="0 0 800 800" fill="none" xmlns="http://www.w3.org/2000/svg">
<g clip-path="url(#clip0_0_1)">
<rect x="198" y="109" width="429" height="238" fill="#D9D9D9"/>
<path d="M715.791 89.7152C739.367 132.732 667.72 137.331 671.394 156.54C678.13 191.17 673.538 242.574 668.332 293.166C659.453 378.929 732.019 584.274 580.764 666.79C552.289 682.482 484.622 691.139 417.874 692.492H417.568H417.262C350.514 691.139 273.661 682.482 245.186 666.79C94.2376 584.274 166.803 378.929 158.23 293.166C152.719 242.574 148.126 191.17 155.168 156.54C158.842 137.331 87.1954 133.003 110.772 89.7152C130.98 52.6503 180.888 85.3864 193.441 73.7529C257.434 15.0444 335.204 -0.647269 396.441 -2C402.565 -2 430.121 -2 430.121 -2C491.052 0.705462 568.823 15.315 633.121 73.7529C645.675 85.3864 695.277 52.6503 715.791 89.7152ZM384.194 314.539C381.438 315.621 376.845 342.135 390.93 343.488C400.422 344.299 426.447 347.005 432.571 343.488C444.512 336.724 443.287 320.491 436.551 316.433C425.222 309.94 387.256 313.186 384.194 314.539ZM306.423 115.958C274.886 112.712 221.916 138.684 213.956 193.875C205.382 251.231 281.928 308.046 355.412 251.231C394.91 220.66 408.689 126.509 306.423 115.958ZM519.527 115.958C417.262 126.509 431.04 220.66 470.538 251.231C544.022 308.046 620.568 251.231 611.995 193.875C604.34 138.684 551.37 112.712 519.527 115.958Z" fill="#8CC5E7"/>
<path d="M413.281 258.536C432.571 256.101 478.805 275.58 475.743 298.577C472.069 325.361 356.637 328.878 350.514 296.954C346.839 277.474 364.292 265.029 413.281 258.536ZM673.844 474.161C664.352 473.891 658.228 462.798 658.228 456.035C658.228 443.86 660.066 429.521 670.17 423.299C690.99 410.583 707.524 474.432 673.844 474.161ZM152.413 474.161C118.732 474.432 135.266 410.583 156.087 423.299C166.191 429.521 168.028 443.86 168.028 456.035C168.028 462.798 161.904 473.891 152.413 474.161ZM609.851 670.307C615.975 678.153 616.281 683.564 606.483 687.622C569.129 702.773 535.755 682.482 548.308 676.801C574.946 664.897 591.48 646.229 609.851 670.307ZM216.405 673.013C234.776 648.934 251.31 667.602 277.948 679.506C290.502 685.187 257.127 705.478 219.773 690.328C209.975 686.27 210.281 680.859 216.405 673.013Z" fill="#B8937F"/>
<path d="M658.535 96.2083C660.065 90.5268 675.987 87.8214 684.866 97.561C695.583 109.195 669.251 125.157 668.026 118.664C664.964 101.078 656.697 101.89 658.535 96.2083ZM167.722 96.2083C169.559 101.89 161.292 101.078 158.23 118.664C157.005 125.157 130.673 109.195 141.39 97.561C149.963 87.8214 165.885 90.5268 167.722 96.2083ZM526.569 227.964C507.292 227.964 491.664 214.156 491.664 197.122C491.664 180.088 507.292 166.28 526.569 166.28C545.847 166.28 561.474 180.088 561.474 197.122C561.474 214.156 545.847 227.964 526.569 227.964ZM517.384 193.605C523.471 193.605 528.406 189.244 528.406 183.865C528.406 178.486 523.471 174.126 517.384 174.126C511.296 174.126 506.361 178.486 506.361 183.865C506.361 189.244 511.296 193.605 517.384 193.605ZM381.744 271.522C385.419 259.077 398.278 255.019 408.688 254.748C435.326 254.207 445.431 266.923 446.349 276.933C448.186 293.978 373.477 298.036 381.744 271.522ZM299.687 227.964C280.41 227.964 264.782 214.156 264.782 197.122C264.782 180.088 280.41 166.28 299.687 166.28C318.964 166.28 334.592 180.088 334.592 197.122C334.592 214.156 318.964 227.964 299.687 227.964ZM308.873 193.605C314.96 193.605 319.895 189.244 319.895 183.865C319.895 178.486 314.96 174.126 308.873 174.126C302.785 174.126 297.85 178.486 297.85 183.865C297.85 189.244 302.785 193.605 308.873 193.605Z" fill="black"/>
</g>
<defs>
<clipPath id="clip0_0_1">
<rect width="800" height="800" fill="white"/>
</clipPath>
</defs>
</svg>
